<svg width="16" height="17" viewBox="0 0 16 17" fill="none" xmlns="http://www.w3.org/2000/svg">
<g clip-path="url(#clip0_2590_236309)">
<path d="M4.39248 15.0541C3.65809 14.2196 2.92372 13.3517 2.45637 12.3169C1.98905 11.2153 1.85551 9.94683 2.08919 8.74512C2.32287 7.5434 2.85694 6.40844 3.62473 5.4404C3.55797 6.27493 3.8584 7.14283 4.42587 7.77708C4.09205 6.17479 4.62616 4.43897 5.69434 3.1705C6.76252 1.90203 8.2313 1.06747 9.76681 0.5C8.99906 1.30114 8.89891 2.56961 9.19934 3.63782C9.49977 4.70601 10.134 5.64068 10.7015 6.60872C11.269 7.57676 11.8031 8.57819 11.8365 9.67976C12.1369 9.1123 12.4707 8.5448 12.671 7.91058C12.8713 7.27633 12.9714 6.60872 12.8045 5.97447C13.4054 6.70886 13.7392 7.44323 13.9061 8.3779C14.073 9.31258 14.0396 10.2806 13.9395 11.2153C13.806 12.2501 13.5389 13.3183 12.9714 14.1862C12.3038 15.221 11.2356 15.9554 10.0673 16.356C7.99763 16.7232 5.96137 16.4227 4.39248 15.0541Z" fill="url(#paint0_linear_2590_236309)"/>
<path d="M6.92812 16.2884C9.66534 17.3566 12.3692 14.1187 10.8671 11.6151C10.8671 11.5817 10.8337 11.5817 10.8337 11.5483C10.9672 12.9169 10.6334 13.9184 9.99913 14.4859C10.333 13.6847 10.0993 12.7501 9.6987 11.9489C9.29813 11.1812 8.73066 10.4802 8.2967 9.74576C7.86274 8.97801 7.52895 8.11008 7.72923 7.24219C6.92809 7.84305 6.36062 8.74433 6.12695 9.71237C5.89327 10.6804 6.0268 11.7486 6.46077 12.6499C5.96005 12.2827 5.59287 11.6819 5.55948 11.0476C5.02537 11.6819 4.69159 12.5164 4.72495 13.3509C4.72498 14.6528 5.75977 15.8211 6.92812 16.2884Z" fill="url(#paint1_linear_2590_236309)"/>
</g>
<defs>
<linearGradient id="paint0_linear_2590_236309" x1="7.99974" y1="0.5" x2="7.99974" y2="16.5" gradientUnits="userSpaceOnUse">
<stop stop-color="#FF4F31"/>
<stop offset="1" stop-color="#FF9548"/>
</linearGradient>
<linearGradient id="paint1_linear_2590_236309" x1="8.00985" y1="7.24219" x2="8.00985" y2="16.498" gradientUnits="userSpaceOnUse">
<stop stop-color="#FFA800"/>
<stop offset="1" stop-color="#FFD15C"/>
</linearGradient>
<clipPath id="clip0_2590_236309">
<rect width="16" height="16" fill="white" transform="translate(0 0.5)"/>
</clipPath>
</defs>
</svg>
